<?xml version="1.0" encoding="UTF-8" standalone="no"?>
<!-- Created with Inkscape (http://www.inkscape.org/) -->

<svg
   xmlns:dc="http://purl.org/dc/elements/1.1/"
   xmlns:cc="http://creativecommons.org/ns#"
   xmlns:rdf="http://www.w3.org/1999/02/22-rdf-syntax-ns#"
   xmlns:svg="http://www.w3.org/2000/svg"
   xmlns="http://www.w3.org/2000/svg"
   xmlns:xlink="http://www.w3.org/1999/xlink"
   xmlns:sodipodi="http://sodipodi.sourceforge.net/DTD/sodipodi-0.dtd"
   xmlns:inkscape="http://www.inkscape.org/namespaces/inkscape"
   width="29.134382mm"
   height="31.781754mm"
   viewBox="0 0 103.23206 112.61221"
   id="svg8201"
   version="1.1"
   inkscape:version="0.91 r13725"
   sodipodi:docname="Tropfen-lineart.svg">
  <title
     id="title8751">water drop - lineart</title>
  <defs
     id="defs8203">
    <pattern
       inkscape:collect="always"
       xlink:href="#Polkadots-large"
       id="pattern8842"
       patternTransform="matrix(1.9177533,0,0,1.9177534,-51.766933,937.37372)" />
    <pattern
       inkscape:isstock="true"
       inkscape:stockid="Polka dots, large"
       id="Polkadots-large"
       patternTransform="translate(0,0) scale(10,10)"
       height="10"
       width="10"
       patternUnits="userSpaceOnUse"
       inkscape:collect="always">
      <circle
         id="circle5447"
         r="0.45"
         cy="0.810"
         cx="2.567"
         style="fill:black;stroke:none" />
      <circle
         id="circle5449"
         r="0.45"
         cy="2.33"
         cx="3.048"
         style="fill:black;stroke:none" />
      <circle
         id="circle5451"
         r="0.45"
         cy="2.415"
         cx="4.418"
         style="fill:black;stroke:none" />
      <circle
         id="circle5453"
         r="0.45"
         cy="3.029"
         cx="1.844"
         style="fill:black;stroke:none" />
      <circle
         id="circle5455"
         r="0.45"
         cy="1.363"
         cx="6.08"
         style="fill:black;stroke:none" />
      <circle
         id="circle5457"
         r="0.45"
         cy="4.413"
         cx="5.819"
         style="fill:black;stroke:none" />
      <circle
         id="circle5459"
         r="0.45"
         cy="4.048"
         cx="4.305"
         style="fill:black;stroke:none" />
      <circle
         id="circle5461"
         r="0.45"
         cy="3.045"
         cx="5.541"
         style="fill:black;stroke:none" />
      <circle
         id="circle5463"
         r="0.45"
         cy="5.527"
         cx="4.785"
         style="fill:black;stroke:none" />
      <circle
         id="circle5465"
         r="0.45"
         cy="5.184"
         cx="2.667"
         style="fill:black;stroke:none" />
      <circle
         id="circle5467"
         r="0.45"
         cy="1.448"
         cx="7.965"
         style="fill:black;stroke:none" />
      <circle
         id="circle5469"
         r="0.45"
         cy="5.049"
         cx="7.047"
         style="fill:black;stroke:none" />
      <circle
         id="circle5471"
         r="0.45"
         cy="0.895"
         cx="4.340"
         style="fill:black;stroke:none" />
      <circle
         id="circle5473"
         r="0.45"
         cy="0.340"
         cx="7.125"
         style="fill:black;stroke:none" />
      <circle
         id="circle5475"
         r="0.45"
         cy="1.049"
         cx="9.553"
         style="fill:black;stroke:none" />
      <circle
         id="circle5477"
         r="0.45"
         cy="2.689"
         cx="7.006"
         style="fill:black;stroke:none" />
      <circle
         id="circle5479"
         r="0.45"
         cy="2.689"
         cx="8.909"
         style="fill:black;stroke:none" />
      <circle
         id="circle5481"
         r="0.45"
         cy="4.407"
         cx="9.315"
         style="fill:black;stroke:none" />
      <circle
         id="circle5483"
         r="0.45"
         cy="3.870"
         cx="7.820"
         style="fill:black;stroke:none" />
      <circle
         id="circle5485"
         r="0.45"
         cy="5.948"
         cx="8.270"
         style="fill:black;stroke:none" />
      <circle
         id="circle5487"
         r="0.45"
         cy="7.428"
         cx="7.973"
         style="fill:black;stroke:none" />
      <circle
         id="circle5489"
         r="0.45"
         cy="8.072"
         cx="9.342"
         style="fill:black;stroke:none" />
      <circle
         id="circle5491"
         r="0.45"
         cy="9.315"
         cx="8.206"
         style="fill:black;stroke:none" />
      <circle
         id="circle5493"
         r="0.45"
         cy="9.475"
         cx="9.682"
         style="fill:black;stroke:none" />
      <circle
         id="circle5495"
         r="0.45"
         cy="6.186"
         cx="9.688"
         style="fill:black;stroke:none" />
      <circle
         id="circle5497"
         r="0.45"
         cy="6.296"
         cx="3.379"
         style="fill:black;stroke:none" />
      <circle
         id="circle5499"
         r="0.45"
         cy="8.204"
         cx="2.871"
         style="fill:black;stroke:none" />
      <circle
         id="circle5501"
         r="0.45"
         cy="8.719"
         cx="4.59"
         style="fill:black;stroke:none" />
      <circle
         id="circle5503"
         r="0.45"
         cy="9.671"
         cx="3.181"
         style="fill:black;stroke:none" />
      <circle
         id="circle5505"
         r="0.45"
         cy="7.315"
         cx="5.734"
         style="fill:black;stroke:none" />
      <circle
         id="circle5507"
         r="0.45"
         cy="6.513"
         cx="6.707"
         style="fill:black;stroke:none" />
      <circle
         id="circle5509"
         r="0.45"
         cy="9.670"
         cx="5.730"
         style="fill:black;stroke:none" />
      <circle
         id="circle5511"
         r="0.45"
         cy="8.373"
         cx="6.535"
         style="fill:black;stroke:none" />
      <circle
         id="circle5513"
         r="0.45"
         cy="7.154"
         cx="4.37"
         style="fill:black;stroke:none" />
      <circle
         id="circle5515"
         r="0.45"
         cy="7.25"
         cx="0.622"
         style="fill:black;stroke:none" />
      <circle
         id="circle5517"
         r="0.45"
         cy="5.679"
         cx="0.831"
         style="fill:black;stroke:none" />
      <circle
         id="circle5519"
         r="0.45"
         cy="8.519"
         cx="1.257"
         style="fill:black;stroke:none" />
      <circle
         id="circle5521"
         r="0.45"
         cy="6.877"
         cx="1.989"
         style="fill:black;stroke:none" />
      <circle
         id="circle5523"
         r="0.45"
         cy="3.181"
         cx="0.374"
         style="fill:black;stroke:none" />
      <circle
         id="circle5525"
         r="0.45"
         cy="1.664"
         cx="1.166"
         style="fill:black;stroke:none" />
      <circle
         id="circle5527"
         r="0.45"
         cy="0.093"
         cx="1.151"
         style="fill:black;stroke:none" />
      <circle
         id="circle5529"
         r="0.45"
         cy="10.093"
         cx="1.151"
         style="fill:black;stroke:none" />
      <circle
         id="circle5531"
         r="0.45"
         cy="4.451"
         cx="1.302"
         style="fill:black;stroke:none" />
      <circle
         id="circle5533"
         r="0.45"
         cy="3.763"
         cx="3.047"
         style="fill:black;stroke:none" />
    </pattern>
  </defs>
  <sodipodi:namedview
     id="base"
     pagecolor="#ffffff"
     bordercolor="#666666"
     borderopacity="1.0"
     inkscape:pageopacity="0.0"
     inkscape:pageshadow="2"
     inkscape:zoom="6.9991111"
     inkscape:cx="16.859283"
     inkscape:cy="53.149606"
     inkscape:document-units="mm"
     inkscape:current-layer="layer1"
     showgrid="false"
     inkscape:window-width="1863"
     inkscape:window-height="1064"
     inkscape:window-x="320"
     inkscape:window-y="181"
     inkscape:window-maximized="0"
     fit-margin-top="1"
     fit-margin-bottom="1"
     fit-margin-left="5"
     fit-margin-right="5" />
  <metadata
     id="metadata8206">
    <rdf:RDF>
      <cc:Work
         rdf:about="">
        <dc:format>image/svg+xml</dc:format>
        <dc:type
           rdf:resource="http://purl.org/dc/dcmitype/StillImage" />
        <dc:title>water drop - lineart</dc:title>
        <dc:date>2015-06-16</dc:date>
        <dc:creator>
          <cc:Agent>
            <dc:title>Frank Tremmel</dc:title>
          </cc:Agent>
        </dc:creator>
        <dc:subject>
          <rdf:Bag>
            <rdf:li>drop</rdf:li>
            <rdf:li>water</rdf:li>
            <rdf:li>tropfen</rdf:li>
            <rdf:li>wasser</rdf:li>
            <rdf:li>wassertropfen</rdf:li>
            <rdf:li>line art</rdf:li>
            <rdf:li>outline</rdf:li>
          </rdf:Bag>
        </dc:subject>
        <dc:description>line art water drop</dc:description>
        <cc:license
           rdf:resource="http://creativecommons.org/publicdomain/zero/1.0/" />
      </cc:Work>
      <cc:License
         rdf:about="http://creativecommons.org/publicdomain/zero/1.0/">
        <cc:permits
           rdf:resource="http://creativecommons.org/ns#Reproduction" />
        <cc:permits
           rdf:resource="http://creativecommons.org/ns#Distribution" />
        <cc:permits
           rdf:resource="http://creativecommons.org/ns#DerivativeWorks" />
      </cc:License>
    </rdf:RDF>
  </metadata>
  <g
     inkscape:label="Ebene 1"
     inkscape:groupmode="layer"
     id="layer1"
     transform="translate(13.754895,-943.31481)">
    <path
       style="fill:#ffffff;fill-rule:evenodd;stroke:none;stroke-width:0.29055119;stroke-linecap:butt;stroke-linejoin:miter;stroke-miterlimit:4;stroke-dasharray:none;stroke-opacity:1"
       d="m 50.577851,947.92037 c -30.193322,22.10894 -41.2351508,57.08593 -42.0053339,62.86513 -1.4727832,11.0014 0.1212018,22.0028 11.1442719,33.0042 4.652906,3.7915 11.542316,6.0174 20.00254,7.1438 9.103357,-2.4729 18.034136,-1.4943 27.860681,-18.431 1.865606,-6.5178 3.868937,-12.9208 1.285878,-23.1458 -4.366323,-8.343 -11.980533,-17.18574 -21.288418,-26.28901 -5.350878,-4.20543 -5.099181,-9.70377 -5.715011,-15.00191 0.88005,-3.95288 1.851331,-7.90577 5.715011,-11.85865 11.568487,-14.50488 3.891876,-7.62631 3.000381,-8.28676 z"
       id="path8778"
       inkscape:connector-curvature="0"
       sodipodi:nodetypes="cccccccccc" />
    <path
       style="fill:url(#pattern8842);fill-opacity:1;fill-rule:evenodd;stroke:none;stroke-width:0.29055119;stroke-linecap:butt;stroke-linejoin:miter;stroke-miterlimit:4;stroke-dasharray:none;stroke-opacity:1"
       d="m 50.577847,947.92034 c -30.193318,22.10894 -41.2351459,57.08586 -42.0053299,62.86506 -1.472783,11.0014 0.121202,22.0028 11.1442719,33.0042 4.652906,3.7916 11.542316,6.0174 20.00254,7.1439 9.103358,-2.4729 18.034138,-1.4944 27.860678,-18.4311 1.86561,-6.5178 3.86894,-12.9208 1.28588,-23.1458 -4.36632,-8.343 -11.98053,-17.18567 -21.288417,-26.28895 -5.350878,-4.2054 -5.099181,-9.70376 -5.715011,-15.0019 0.88005,-3.95288 1.851331,-7.90577 5.715011,-11.85865 11.568487,-14.50488 3.891877,-7.62631 3.000377,-8.28676 z"
       id="path8778-4"
       inkscape:connector-curvature="0"
       sodipodi:nodetypes="cccccccccc" />
    <path
       style="color:#000000;font-style:normal;font-variant:normal;font-weight:normal;font-stretch:normal;font-size:medium;line-height:normal;font-family:sans-serif;text-indent:0;text-align:start;text-decoration:none;text-decoration-line:none;text-decoration-style:solid;text-decoration-color:#000000;letter-spacing:normal;word-spacing:normal;text-transform:none;direction:ltr;block-progression:tb;writing-mode:lr-tb;baseline-shift:baseline;text-anchor:start;white-space:normal;clip-rule:nonzero;display:inline;overflow:visible;visibility:visible;opacity:1;isolation:auto;mix-blend-mode:normal;color-interpolation:sRGB;color-interpolation-filters:linearRGB;solid-color:#000000;solid-opacity:1;fill:#000000;fill-opacity:1;fill-rule:evenodd;stroke:none;stroke-width:3.18897629;stroke-linecap:butt;stroke-linejoin:miter;stroke-miterlimit:4;stroke-dasharray:none;stroke-dashoffset:0;stroke-opacity:1;color-rendering:auto;image-rendering:auto;shape-rendering:auto;text-rendering:auto;enable-background:accumulate"
       d="m 48.677267,948.14436 c -7.238062,5.33276 -17.521664,14.96536 -24.020166,22.88367 -14.8530431,18.09816 -20.2884403,30.59447 -20.6795607,43.13107 -0.2927452,9.3834 3.4817529,18.9595 9.2703797,26.71 4.874641,6.5267 14.692674,11.4425 24.494564,11.5136 9.604722,0.07 17.59076,-2.653 23.44111,-8.2479 5.85035,-5.595 9.740353,-11.2001 10.468282,-20.433 1.079655,-13.6942 -6.095781,-24.63077 -11.897886,-31.12716 -1.846875,-2.06787 -5.932875,-5.998 -8.175143,-8.66869 -2.242268,-2.6707 -6.19311,-7.13745 -6.881114,-9.01919 -2.786865,-7.62229 -0.588406,-12.06597 1.724015,-15.43678 2.843396,-4.14482 0.773693,-3.78038 -1.427607,-1.4949 -3.650976,3.79059 -5.73375,11.25194 -2.578125,19.88281 0.977085,2.6724 3.105804,5.48684 5.435546,8.26172 2.329743,2.77488 4.88635,6.54762 6.292969,8.83203 4.75749,7.72636 8.816983,11.76076 7.863281,23.85746 -0.675602,8.5692 -3.310277,14.8017 -7.527343,19.291 -4.94243,5.2615 -8.866318,6.4897 -15.126869,6.3668 -9.933155,-0.1949 -19.091103,-4.1931 -23.436737,-10.5558 -4.345634,-6.3628 -6.811444,-13.3472 -6.8918563,-21.9817 -0.101258,-10.8729 7.8078113,-23.02859 21.0023373,-41.28245 5.845013,-8.08623 13.636288,-14.86397 20.023437,-20.92968 1.621848,-1.54023 1.127523,-3.39559 -1.373514,-1.55291 z"
       id="path8772"
       inkscape:connector-curvature="0"
       sodipodi:nodetypes="sssssssssssssssssssssss" />
    <path
       style="fill:#ffffff;fill-opacity:1;fill-rule:evenodd;stroke:#000000;stroke-width:1.0629921;stroke-linecap:butt;stroke-linejoin:miter;stroke-miterlimit:4;stroke-dasharray:none;stroke-opacity:1"
       d="m 32.325729,1030.7654 c -7.874072,5.9865 -16.12127,-8.0933 -17.468994,-13.5914 -1.472237,-6.0062 -1.306278,-12.3688 1.240966,-17.73508 3.680597,-7.75383 10.795102,-13.37873 12.228292,-12.43351 0.899747,0.59337 -3.600948,6.38088 -5.552599,11.873 -1.581196,4.44959 -0.937374,8.58369 1.238789,10.56789 2.865536,2.6127 7.163552,4.7239 9.401417,7.927 3.126726,4.4754 3.25887,10.0874 -1.087871,13.3921 z"
       id="path8776"
       inkscape:connector-curvature="0"
       sodipodi:nodetypes="ssssssss" />
  </g>
</svg>
